<?xml version="1.0" encoding="UTF-8"?>
<svg width="173px" height="47px" viewBox="0 0 173 47" version="1.1" xmlns="http://www.w3.org/2000/svg" xmlns:xlink="http://www.w3.org/1999/xlink">
    <!-- Generator: Sketch 54.1 (76490) - https://sketchapp.com -->
    <title>Zona</title>
    <desc>Created with Sketch.</desc>
    <g id="Page-1" stroke="none" stroke-width="1" fill="none" fill-rule="evenodd">
        <g id="Artboard" transform="translate(-80.000000, -93.000000)">
            <g id="Group-59" transform="translate(73.000000, 91.000000)">
                <g id="Zona" transform="translate(7.323700, 2.218876)">
                    <path d="M-1.42108547e-14,0.566823796 C8.19,0.573823796 16.38,0.582823796 24.571,0.588823796 C27.433,0.590823796 30.295,0.588823796 33.158,0.588823796 L34.164,0.588823796 C34.164,2.3428238 34.191,4.0068238 34.14,5.6688238 C34.13,5.9868238 33.842,6.3198238 33.628,6.6058238 C25.74,17.1198238 17.846,27.6288238 9.952,38.1378238 C9.784,38.3628238 9.623,38.5928238 9.361,38.9558238 L34.021,38.9558238 L34.021,45.6428238 L-1.42108547e-14,45.6428238 L-1.42108547e-14,40.0288238 C0.172,39.8538238 0.368,39.6938238 0.514,39.4998238 C8.439,28.9458238 16.36,18.3878238 24.278,7.8288238 C24.383,7.6878238 24.447,7.5148238 24.581,7.2578238 L23.543,7.2578238 C16.033,7.2578238 8.523,7.2588238 1.014,7.2558238 C0.676,7.2548238 0.338,7.2198238 -1.42108547e-14,7.2008238 L-1.42108547e-14,0.566823796 Z" id="Fill-1" fill="#000000"></path>
                    <path d="M43.1846,22.8480238 C43.1596,31.4220238 50.1226,38.4550238 58.6806,38.4980238 C67.2116,38.5390238 74.3066,31.5100238 74.3316,22.9880238 C74.3576,14.4270238 67.3766,7.3890238 58.8206,7.3530238 C50.2516,7.3170238 43.2096,14.2940238 43.1846,22.8480238 M35.8346,22.8900238 C35.8906,10.1780238 46.1136,-0.0179762039 58.7826,2.37961443e-05 C71.4496,0.0190237961 81.5236,10.3150238 81.7176,22.9520238 C81.9236,36.3050238 70.2216,46.0240238 58.5516,45.8570238 C45.9896,45.6770238 35.7796,35.4510238 35.8346,22.8900238" id="Fill-3" fill="#000000"></path>
                    <path d="M88.1719,1.1459238 C97.9359,11.6539238 107.5889,22.0429238 117.4119,32.6159238 L117.4119,0.739923796 L124.0619,0.739923796 L124.0619,45.6389238 C122.4439,45.6389238 120.8639,45.6619238 119.2859,45.6149238 C119.0369,45.6079238 118.7659,45.3129238 118.5599,45.0989238 C110.9579,37.1909238 103.3629,29.2759238 95.7689,21.3599238 C95.5339,21.1169238 95.3309,20.8439238 95.1129,20.5849238 C95.0399,20.6129238 94.9659,20.6419238 94.8919,20.6699238 L94.8919,45.6039238 L88.1719,45.6039238 L88.1719,1.1459238 Z" id="Fill-5" fill="#000000"></path>
                    <path d="M150.9092,16.5209238 C147.3762,24.0979238 143.9262,31.4919238 140.4402,38.9599238 L161.4462,38.9599238 C157.9402,31.4909238 154.4692,24.0989238 150.9092,16.5209238 M150.9062,0.675923796 C157.9902,15.7489238 164.9922,30.6419238 172.0162,45.5839238 L129.9122,45.5839238 C136.9012,30.6349238 143.8652,15.7369238 150.9062,0.675923796" id="Fill-7" fill="#000000"></path>
                    <path d="M144.0547,22.4891238 L154.0377,43.1151238" id="Stroke-57" stroke="#000000" stroke-width="7"></path>
                </g>
            </g>
        </g>
    </g>
</svg>