<?xml version="1.0" encoding="UTF-8"?>
<svg width="215px" height="215px" viewBox="0 0 215 215" version="1.1" xmlns="http://www.w3.org/2000/svg" xmlns:xlink="http://www.w3.org/1999/xlink">
    <!-- Generator: Sketch 54.1 (76490) - https://sketchapp.com -->
    <title>pat13</title>
    <desc>Created with Sketch.</desc>
    <defs>
        <circle id="path-1" cx="107.5" cy="107.5" r="107.5"></circle>
        <polygon id="path-3" points="4.98731955e-05 0.753837263 135.111228 0.753837263 135.111228 123 4.98731955e-05 123"></polygon>
    </defs>
    <g id="Page-1" stroke="none" stroke-width="1" fill="none" fill-rule="evenodd">
        <g id="Desktop-HD" transform="translate(-212.000000, -2164.000000)">
            <g id="pat13" transform="translate(212.000000, 2164.000000)">
                <g id="Group-7">
                    <mask id="mask-2" fill="white">
                        <use xlink:href="#path-1"></use>
                    </mask>
                    <use id="Mask" fill="#1630B2" xlink:href="#path-1"></use>
                    <g id="Group-18" mask="url(#mask-2)">
                        <g transform="translate(40.000000, 37.000000)">
                            <path d="M42.9609751,123 C35.527306,112.129819 25.7386277,105.976259 22.141691,91.8560583 C18.8465869,79.2060197 19.1006988,65.9567625 18.4672085,53.0041482 C18.1379367,42.1102354 17.5139904,32.1038781 18.6640557,21.4994887 C19.2343164,14.432269 20.9868536,6.77176346 20.669512,0 C27.7834533,2.92252556 34.6098784,9.08439128 39.3664245,14.9579201 C45.6035007,21.7106984 52.1352513,27.579481 58.9640624,34.3286996 C68.4640314,43.1318734 80.6447025,56.9328864 84.5327345,69.5805518 C92.9064984,96.6426876 63.6514137,112.926008 42.0662147,120.943672" id="Fill-1" fill="#34886E"></path>
                            <path d="M62.9432058,110.775141 C58.7630176,93.3652621 54.1940577,76.0564856 49.6667094,58.7346251 C47.8322298,51.7097739 47.2116217,43.048249 43.7412095,36.6038461 C40.7380367,31.0253577 34.7935143,27.7258425 32.2492587,21.9344438 C31.324291,19.8315084 28.2521619,21.6489775 29.1688072,23.7340713 C31.5264048,29.0972704 36.6600944,32.2136114 39.8903479,36.971384 C43.9552123,42.9590408 44.4283963,52.7838411 46.2283977,59.6826113 C50.7486125,77.0056612 55.323517,94.3144378 59.5037051,111.723128 C60.04109,113.96047 63.4805906,113.011294 62.9432058,110.775141" id="Fill-3" fill="#FFFFFF"></path>
                            <path d="M56,111.589213 C58.3810889,99.2917823 56,88.580771 63.1432666,76.6796475 C69.4924401,65.9686363 78.6203443,57.2415424 86.9541554,48.1169509 C94.097422,40.5799694 100.446595,33.4392952 108.383955,27.0912359 C113.542584,22.728284 119.892948,18.7604494 124.257484,14 C127.036215,20.7443667 127.432666,29.4714606 126.638573,36.6121348 C126.242122,45.3404188 126.638573,53.6712053 126.638573,62.7946066 C127.036215,75.0932277 125.84567,92.5474155 119.892948,103.655924 C107.193411,127.458171 76.6357067,118.729887 56.7940931,109.606486" id="Fill-5" fill="#267A5E"></path>
                            <path d="M80.5918331,117.304471 C81.523866,109.912444 86.8490868,104.722953 91.2422748,99.1121803 C95.4972073,93.6770405 97.7736557,87.0789232 100.363563,80.756123 C107.043926,64.4542637 111.555108,47.5471814 117.873146,31.146825 C118.700296,29.0012502 115.242716,28.0803619 114.425102,30.2022025 C108.109447,46.5942519 103.529137,63.4894671 96.9167099,79.8103137 C93.562822,88.0864415 90.2280038,94.8127237 84.5726383,101.712266 C80.7038678,106.434192 77.7873917,111.182226 77.0162596,117.304471 C76.7302138,119.578211 80.3093628,119.552104 80.5918331,117.304471" id="Fill-7" fill="#FFFFFF"></path>
                            <g id="Group-11" stroke-width="1" fill="none" transform="translate(0.000000, 105.000000)">
                                <mask id="mask-4" fill="white">
                                    <use xlink:href="#path-3"></use>
                                </mask>
                                <g id="Clip-10"></g>
                                <path d="M0.0891157895,3.24660865 C-1.60730526,1.16625288 21.3814667,1.18281058 30.5268702,0.787791346 C43.6496772,0.393954808 56.3752211,3.54819519 69.4980281,3.94203173 C83.0180982,4.33586827 96.1409053,3.94203173 109.662168,3.54819519 C117.614589,3.15317596 127.556905,1.18281058 135.112063,2.75933942 C129.544414,13.0097337 127.556905,26.8070221 124.772484,38.2401087 C121.193537,52.0385798 120.000554,66.2308875 114.831361,79.6343394 C112.048133,87.9131856 110.456695,95.0093394 109.263712,103.288186 C108.469186,109.595484 106.480484,117.480493 103.2988,123.000118 C94.9479228,111.173195 67.5093263,117.87433 55.1822386,118.269349 C50.4103088,118.269349 41.6621684,121.02857 37.2875018,119.845878 C29.7323439,117.480493 24.5619579,93.8266471 22.9717123,85.9416375 C20.5857474,74.5097337 17.8025193,63.8655029 14.6208351,52.4324163 C12.2348702,45.3362625 8.65592281,38.6339452 7.06567719,30.7501183 C4.67971228,22.0762529 1.40855439,9.67927212 0.0891157895,3.24660865" id="Fill-9" fill="#FFAF2E" mask="url(#mask-4)"></path>
                            </g>
                            <path d="M92.2717285,101.580364 C102.262675,103.728236 111.169058,97.0129433 120.719106,95.3886877 C122.96368,95.0067148 122.008793,91.6502296 119.778366,92.0298805 C111.092431,93.5078486 102.233203,100.160446 93.212469,98.2215566 C90.989115,97.7432197 90.0436591,101.102027 92.2717285,101.580364" id="Fill-12" fill="#FFFFFF"></path>
                            <path d="M85.4384497,69.1138488 C89.8746735,74.4738111 90.2140376,82.203841 93.7173015,88.1468209 C94.8765041,90.1143569 97.9027923,88.3249322 96.7377588,86.3502717 C93.0420719,80.0783796 92.639733,72.3067904 87.9119593,66.5953552 C86.4565421,64.8356156 83.9946945,67.3695456 85.4384497,69.1138488" id="Fill-14" fill="#FFFFFF"></path>
                            <path d="M105.750413,65.8174488 C111.914195,63.0020513 117.074682,58.2578927 123.72211,56.5012366 C125.962721,55.9089586 125.011032,52.4751706 122.764419,53.0686355 C115.78216,54.9119375 110.397252,59.7902191 103.933441,62.7433006 C101.827242,63.7059007 103.657415,66.7741143 105.750413,65.8174488" id="Fill-16" fill="#FFFFFF"></path>
                        </g>
                    </g>
                </g>
            </g>
        </g>
    </g>
</svg>