<?xml version="1.0" encoding="UTF-8"?>
<svg width="215px" height="215px" viewBox="0 0 215 215" version="1.1" xmlns="http://www.w3.org/2000/svg" xmlns:xlink="http://www.w3.org/1999/xlink">
    <!-- Generator: Sketch 54.1 (76490) - https://sketchapp.com -->
    <title>pat11</title>
    <desc>Created with Sketch.</desc>
    <defs>
        <circle id="path-1" cx="107.5" cy="107.5" r="107.5"></circle>
        <polygon id="path-3" points="0.271591604 0.543333333 114.713 0.543333333 114.713 162.840843 0.271591604 162.840843"></polygon>
        <polygon id="path-5" points="0.00035145756 0.168822388 112.393742 0.168822388 112.393742 88 0.00035145756 88"></polygon>
    </defs>
    <g id="Page-1" stroke="none" stroke-width="1" fill="none" fill-rule="evenodd">
        <g id="Desktop-HD" transform="translate(-613.000000, -1804.000000)">
            <g id="pat11" transform="translate(613.000000, 1804.000000)">
                <g id="Group-7">
                    <mask id="mask-2" fill="white">
                        <use xlink:href="#path-1"></use>
                    </mask>
                    <use id="Mask" fill="#AEBBDF" xlink:href="#path-1"></use>
                    <g id="Group-19" mask="url(#mask-2)">
                        <g transform="translate(50.000000, 21.000000)">
                            <g id="Group-3" stroke-width="1" fill="none" transform="translate(1.000000, 0.000000)">
                                <mask id="mask-4" fill="white">
                                    <use xlink:href="#path-3"></use>
                                </mask>
                                <g id="Clip-2"></g>
                                <path d="M23.3709685,160.190437 C16.7979348,142.962794 3.65186742,113.808323 1.02265393,96.5806805 C-1.60655955,84.6538512 2.33726067,67.4262089 18.1125416,75.3774285 C28.6293955,79.3530382 29.9440022,99.231087 37.8316427,105.857103 C57.5507438,76.7026317 7.59568764,47.5481602 19.4271483,15.7432821 C37.8316427,-34.6144415 45.7192831,55.4993797 52.2923169,64.7758024 C66.752991,92.6050707 69.3822045,66.1010057 75.9552382,52.8489732 C82.5282719,36.9465341 103.56198,32.9709244 103.56198,56.8245829 C103.56198,71.4018187 74.6406315,83.328648 82.5282719,97.9058837 C90.4159124,111.157916 119.337261,84.6538512 114.078834,112.48312 C112.764227,121.759542 78.5844517,149.588811 69.3822045,154.889624 C56.2361371,161.51564 37.8316427,158.865233 23.3709685,162.840843 C20.7417551,158.865233 23.3709685,158.865233 24.6855753,156.214827" id="Fill-1" fill="#1E7712" mask="url(#mask-4)"></path>
                            </g>
                            <g id="Group-6" stroke-width="1" fill="none" transform="translate(0.000000, 140.000000)">
                                <mask id="mask-6" fill="white">
                                    <use xlink:href="#path-5"></use>
                                </mask>
                                <g id="Clip-5"></g>
                                <path d="M2.02164884,2.82553881 C36.1844395,20.0941955 76.9169977,4.15389701 112.393742,0.168822388 C107.137928,21.4225537 103.196067,41.3479269 93.998393,61.2733 C79.5449047,89.1688224 75.6030442,86.512106 46.6960674,87.8404642 C20.4169977,89.1688224 16.4751372,82.5270313 7.27746279,55.9598672 C3.33560233,41.3479269 -1.92021163,18.7658373 0.707695349,2.82553881" id="Fill-4" fill="#842A15" mask="url(#mask-6)"></path>
                            </g>
                            <path d="M42.4437334,132.916108 C42.3122419,131.812043 42.0007473,129.058565 43.3233226,129.003762 C44.8003686,128.942277 46.0144315,130.655849 46.6297609,131.846796 C47.0344486,132.62873 47.9804218,135.796567 46.4740137,135.979686 C44.542492,136.212262 42.5867145,134.676462 41.2883949,133.363882 C39.5126205,131.567438 36.8023624,134.399778 38.58069,136.200232 C40.9220058,138.567421 44.4237666,140.752828 47.796589,139.750348 C51.8115498,138.558065 51.3838831,133.303733 50.0983296,130.169313 C48.9532041,127.382418 46.0820922,124.878892 43.0807654,125.004536 C39.1551677,125.166269 38.2194074,129.589211 38.6138821,132.916108 C38.9138871,135.447704 42.7475683,135.478446 42.4437334,132.916108" id="Fill-7" fill="#FFFFFF"></path>
                            <path d="M56.6431258,100.380354 C56.5151334,99.372581 56.4356434,98.3938281 56.7401305,97.412437 C56.8896795,96.9349323 57.0890781,96.9626328 57.3531466,96.9520802 C58.6478904,96.9019554 59.8537132,98.3898709 60.4546037,99.4767878 C60.8318444,100.160068 61.6536901,102.894509 60.4330471,103.033011 C58.5818733,103.241425 56.7131847,101.861674 55.4709851,100.686379 C53.5969074,98.9135432 50.7352676,101.708661 52.6133871,103.484135 C54.9401536,105.68435 58.4148096,107.697257 61.7641677,106.76731 C65.7939063,105.647416 65.3991509,100.749694 64.1017125,97.7976066 C62.9632541,95.2056263 60.0962251,92.8893323 57.1160239,93.0040918 C53.1940683,93.1557853 52.2051589,97.2488719 52.6012616,100.380354 C52.9178742,102.87868 56.9637803,102.909018 56.6431258,100.380354" id="Fill-9" fill="#FFFFFF"></path>
                            <path d="M84.4437334,127.916108 C84.3122419,126.812043 84.0007473,124.058565 85.3233226,124.003762 C86.8003686,123.942277 88.0144315,125.655849 88.6297609,126.846796 C89.0344486,127.62873 89.9804218,130.796567 88.4740137,130.979686 C86.542492,131.212262 84.5867145,129.676462 83.2883949,128.363882 C81.5126205,126.567438 78.8023624,129.399778 80.58069,131.200232 C82.9220058,133.567421 86.4237666,135.752828 89.796589,134.750348 C93.8115498,133.558065 93.3838831,128.303733 92.0983296,125.169313 C90.9532041,122.382418 88.0820922,119.878892 85.0807654,120.004536 C81.1551677,120.166269 80.2194074,124.589211 80.6138821,127.916108 C80.9138871,130.447704 84.7475683,130.478446 84.4437334,127.916108" id="Fill-11" fill="#FFFFFF"></path>
                            <path d="M86.5172989,55.9131178 C86.3805242,54.7503592 86.1369349,52.1382465 87.3353419,52.0877511 C88.7473778,52.030432 89.9562057,53.700874 90.5658301,54.8813742 C90.9487993,55.6210634 91.8788673,58.7231178 90.4590156,58.8950751 C88.5558933,59.1257161 86.6332317,57.6094898 85.3553652,56.3170809 C83.543426,54.4828701 80.7779718,57.3747545 82.5925162,59.2116948 C84.9281071,61.5754247 88.4204212,63.7508206 91.7850789,62.750466 C95.8049526,61.5549536 95.389418,56.3034335 94.0998279,53.1577074 C92.9574335,50.3750022 90.0877699,47.8802571 87.0930552,48.0044485 C83.1695752,48.1668526 82.2147575,52.5763281 82.6094502,55.9131178 C82.915565,58.4979357 86.8273215,58.5293247 86.5172989,55.9131178" id="Fill-13" fill="#FFFFFF"></path>
                            <path d="M32.4437334,27.9161076 C32.3122419,26.812043 32.0007473,24.0585647 33.3233226,24.0037625 C34.8003686,23.942277 36.0144315,25.6558494 36.6297609,26.8467956 C37.0344486,27.62873 37.9804218,30.7965666 36.4740137,30.9796863 C34.542492,31.2122617 32.5867145,29.6764624 31.2883949,28.363882 C29.5126205,26.5674379 26.8023624,29.3997779 28.58069,31.2002319 C30.9220058,33.5674212 34.4237666,35.7528275 37.796589,34.7503476 C41.8115498,33.5580648 41.3838831,28.3037332 40.0983296,25.1693125 C38.9532041,22.3824182 36.0820922,19.8788916 33.0807654,20.0045358 C29.1551677,20.1662692 28.2194074,24.5892108 28.6138821,27.9161076 C28.9138871,30.4477036 32.7475683,30.4784463 32.4437334,27.9161076" id="Fill-15" fill="#FFFFFF"></path>
                            <path d="M19.4437334,95.9161076 C19.3122419,94.812043 19.0007473,92.0585647 20.3233226,92.0037625 C21.8003686,91.942277 23.0144315,93.6558494 23.6297609,94.8467956 C24.0344486,95.62873 24.9804218,98.7965666 23.4740137,98.9796863 C21.542492,99.2122617 19.5867145,97.6764624 18.2883949,96.363882 C16.5126205,94.5674379 13.8023624,97.3997779 15.58069,99.2002319 C17.9220058,101.567421 21.4237666,103.752828 24.796589,102.750348 C28.8115498,101.558065 28.3838831,96.3037332 27.0983296,93.1693125 C25.9532041,90.3824182 23.0820922,87.8788916 20.0807654,88.0045358 C16.1551677,88.1662692 15.2194074,92.5892108 15.6138821,95.9161076 C15.9138871,98.4477036 19.7475683,98.4784463 19.4437334,95.9161076" id="Fill-17" fill="#FFFFFF"></path>
                        </g>
                    </g>
                </g>
            </g>
        </g>
    </g>
</svg>