<?xml version="1.0" encoding="UTF-8"?>
<svg width="215px" height="215px" viewBox="0 0 215 215" version="1.1" xmlns="http://www.w3.org/2000/svg" xmlns:xlink="http://www.w3.org/1999/xlink">
    <!-- Generator: Sketch 54.1 (76490) - https://sketchapp.com -->
    <title>pat14</title>
    <desc>Created with Sketch.</desc>
    <defs>
        <circle id="path-1" cx="107.5" cy="107.5" r="107.5"></circle>
        <polygon id="path-3" points="0.700452943 0.44160263 122.432883 0.44160263 122.432883 63 0.700452943 63"></polygon>
    </defs>
    <g id="Page-1" stroke="none" stroke-width="1" fill="none" fill-rule="evenodd">
        <g id="Desktop-HD" transform="translate(-613.000000, -2164.000000)">
            <g id="pat14" transform="translate(613.000000, 2164.000000)">
                <g id="Group-7">
                    <mask id="mask-2" fill="white">
                        <use xlink:href="#path-1"></use>
                    </mask>
                    <use id="Mask" fill="#BC7CC9" xlink:href="#path-1"></use>
                    <g id="Group-40" mask="url(#mask-2)">
                        <g transform="translate(-14.000000, 22.000000)">
                            <path d="M130.187649,185.94416 C131.173806,173.670391 132.801874,161.893228 136.111867,150.023043 C139.391293,138.258332 139.592164,125.827818 143.923976,114.327523 C144.423968,112.99958 142.312646,112.431927 141.818476,113.743756 C137.498309,125.213287 137.074735,137.642336 134.006368,149.438543 C130.843389,161.595851 129.011539,173.414764 128.004276,185.94416 C127.890741,187.3578 130.074841,187.346081 130.187649,185.94416" id="Fill-1" fill="#508444"></path>
                            <path d="M202.905944,138 C194.829119,132.888393 184.022049,131.863733 174.889344,128.528837 C164.161136,124.845323 154.753874,118.941468 143.941692,116.409782 C133.572746,114.142667 125.24327,112.489471 114.436199,111.46408 C104.870482,110.878664 96.181013,107.807607 88.015103,102.342266 C85.7069172,100.666413 83.0445809,99.0811863 81,96.9617039 C85.1461179,92.5151759 87.5112599,85.504805 90.5905447,79.8209378 C94.3715589,72.4509857 99.3990372,67.0265724 105.578783,61.6862075 C115.111641,53.232396 125.447728,46.4588224 136.941193,41.2770533 C156.213558,32.6105626 179.096069,42.6320603 195.518435,53.9164772 C206.527043,61.6759755 214.557134,78.4871256 214.960208,91.9575328 C215.346488,100.907596 212.811938,110.223086 212.047411,119.089101 C211.794029,122.54605 210.737419,124.322761 208.979079,127.785556 C207.130924,130.893887 204.131232,133.918169 202.726313,137.29107 C203.34918,138.263839 203.433884,137.111279 203.788034,137.021384" id="Fill-3" fill="#508444"></path>
                            <path d="M91.5289924,84.0440296 C108.01714,93.7451626 125.169771,102.653803 140.070051,114.735323 C141.158456,115.617971 142.725053,114.083879 141.625648,113.193233 C126.572081,100.986659 109.298435,91.9624168 92.6401326,82.1609497 C91.4167782,81.4411624 90.3100386,83.3271505 91.5289924,84.0440296" id="Fill-5" fill="#FFFFFF"></path>
                            <path d="M112.204774,62.5928748 C123.481283,78.2335137 133.858934,95.506729 138.813774,114.218341 C139.176432,115.588591 141.322714,115.006784 140.958573,113.634336 C135.955526,94.7388025 125.511128,77.2743384 114.126342,61.4834849 C113.301648,60.3396555 111.370439,61.4358559 112.204774,62.5928748" id="Fill-7" fill="#FFFFFF"></path>
                            <path d="M141.086274,114.25588 C144.487195,104.754102 145.563736,94.4250322 145.909121,84.341736 C146.258683,74.1501825 145.629889,63.7538177 143.498393,53.7882879 C143.203842,52.407275 141.189332,52.9931814 141.48458,54.3712685 C143.581258,64.178801 144.088193,74.3162259 143.820102,84.341736 C143.55619,94.2246098 142.401659,104.370812 139.071764,113.6729 C138.59686,115.000516 140.616941,115.568135 141.086274,114.25588" id="Fill-9" fill="#FFFFFF"></path>
                            <path d="M141.364233,115.962822 C145.507125,114.931749 148.611009,111.163834 151.205975,108.015733 C154.274081,104.290261 156.797492,100.18646 159.54214,96.2297469 C163.084846,91.1212178 164.265505,84.3493617 166.507807,78.6268725 C169.123217,71.9538061 172.725066,66.0659355 177.68792,60.8864242 C178.666326,59.8663283 177.119131,58.3120358 176.139264,59.334327 C167.941098,67.8902534 164.313695,78.1504862 160.500102,89.1381046 C158.765987,94.1354037 155.481755,98.5253286 152.436284,102.80256 C149.655859,106.706586 145.742235,112.611287 140.78157,113.845793 C139.411802,114.186801 139.993004,116.304561 141.364233,115.962822" id="Fill-11" fill="#FFFFFF"></path>
                            <path d="M141.772478,116.128049 C164.095505,122.082944 187.204738,118.991936 209.954624,120.994927 C211.35426,121.118221 211.342645,118.954443 209.954624,118.83187 C187.402923,116.845463 164.478807,119.945123 142.351787,114.042142 C140.993531,113.679469 140.417851,115.766819 141.772478,116.128049" id="Fill-13" fill="#FFFFFF"></path>
                            <path d="M141.048417,115.993515 C152.656187,114.831411 163.351741,110.249899 174.41656,106.900304 C186.826351,103.143463 200.04546,101.87373 212.944199,101.183594 C214.348282,101.107963 214.35558,98.9262902 212.944199,99.0019216 C200.632198,99.6607867 188.177161,100.947974 176.232965,104.112126 C164.435454,107.237736 153.318091,112.583561 141.048417,113.811843 C139.657469,113.950743 139.643604,116.13387 141.048417,115.993515" id="Fill-15" fill="#FFFFFF"></path>
                            <path d="M143.376234,114.971292 C153.426854,112.803083 160.999651,105.186855 168.505718,98.682228 C173.245774,94.5745828 178.467608,91.0938632 183.492918,87.3484417 C189.098269,83.1718714 194.672088,78.9564391 200.497429,75.0856325 C201.67291,74.3054586 200.572226,72.3990185 199.387212,73.1872581 C189.163533,79.9778511 178.903922,87.328644 169.381279,95.0731902 C161.158777,101.760395 153.585981,110.521954 142.79106,112.850011 C141.405122,113.149908 141.993229,115.269723 143.376234,114.971292" id="Fill-17" fill="#FFFFFF"></path>
                            <path d="M138.941095,182.660231 C133.731502,166.518402 127.927661,151.117546 119.783654,136.232528 C111.669252,121.402155 107.487858,104.636656 98.0571584,90.4962542 C97.2823983,89.3334306 95.4043452,90.42631 96.1870479,91.5993338 C105.379471,105.382 109.791199,121.650603 117.359731,136.293001 C121.24364,143.808368 125.230802,151.098603 128.402048,158.971706 C131.602175,166.916939 134.221774,175.090948 136.852203,183.240914 C137.283267,184.574956 139.375047,184.004473 138.941095,182.660231" id="Fill-19" fill="#2F6821"></path>
                            <path d="M29.6124111,137 C37.7236857,128.394256 50.341224,123.866034 60.2557321,117.072603 C71.9720177,109.37265 81.4351714,99.4089518 93.6020833,93.0684165 C105.319097,87.1807766 114.782251,82.6518228 127.399789,78.1221373 C138.665448,74.4989743 148.12933,68.158439 156.240604,59.1005314 C158.493736,56.3831591 161.197495,53.6657869 163,50.4955192 C156.691231,46.4194608 151.734341,38.7202393 146.326824,32.8325994 C139.567429,25.1326463 131.906053,20.1507971 122.893525,15.6218433 C108.924108,8.37551724 94.5033361,3.39366807 79.1820396,0.676295788 C53.4956086,-3.85265801 29.1617847,15.1689479 12.9385075,33.7376585 C2.12347465,46.4194608 -2.38278903,69.0642298 1.22222192,85.3691951 C3.47535376,96.2386842 9.33422453,106.655278 12.9385075,117.072603 C14.2903866,121.148662 16.0936201,122.960243 19.2480046,126.583406 C22.4023892,129.753674 26.9086529,132.471046 29.6124111,136.094209 C29.1617847,137.452895 28.7111584,136.094209 28.260532,136.094209" id="Fill-21" fill="#2F6821"></path>
                            <path d="M145.13007,36.3220478 C128.27156,53.1381348 110.408205,69.1947903 96.2091082,88.4254614 C95.3705215,89.5616933 97.2701027,90.6505519 98.0984806,89.5288964 C112.178716,70.4578371 129.959672,54.5440305 146.676716,37.8678771 C147.676457,36.87085 146.129082,35.3250206 145.13007,36.3220478" id="Fill-23" fill="#FFFFFF"></path>
                            <path d="M113.814374,18.7354029 C105.183068,40.9455398 98.1398238,64.9322545 98.000022,88.9430163 C97.9920125,90.3530565 100.176416,90.3515991 100.184425,88.9430163 C100.322771,65.1348339 107.360919,41.3426829 115.920867,19.3169078 C116.432018,18.0008703 114.318972,17.4368542 113.814374,18.7354029" id="Fill-25" fill="#FFFFFF"></path>
                            <path d="M98.8066779,88.4086708 C91.8830679,78.303358 87.5584042,66.5054363 84.1949358,54.7425341 C80.7978541,42.8607115 78.4670985,30.4506781 78.1459849,18.057425 C78.1102262,16.6493495 75.9639857,16.6457017 76.0004597,18.057425 C76.3265795,30.6702796 78.746732,43.2182021 82.1259343,55.3240036 C85.4522136,67.2401161 89.9578166,79.3028727 96.9536593,89.5132441 C97.7403519,90.6608621 99.6012374,89.5686916 98.8066779,88.4086708" id="Fill-27" fill="#FFFFFF"></path>
                            <path d="M97.9370324,88.8044032 C91.9689562,88.897292 85.9569217,83.5704464 81.6160365,80.0596873 C76.6575366,76.0493764 71.3283216,71.7143202 67.5244606,66.5812978 C63.1330232,60.6561603 59.5665372,54.2117231 54.9421207,48.4284788 C50.3675237,42.708867 44.8463572,38.0198093 38.6277185,34.1711396 C37.419597,33.4236405 36.3169756,35.3223761 37.5192359,36.0662182 C44.4895621,40.3800635 50.2217285,45.7741986 55.1802284,52.2734915 C59.9306588,58.4999691 63.4707697,65.6728889 68.7223251,71.4992862 C72.731325,75.9477106 77.8444116,80.0004432 82.5970399,83.6172565 C86.8800467,86.8771427 92.2451611,91.087128 97.9370324,90.9986276 C99.3532234,90.9766854 99.3554213,88.7824609 97.9370324,88.8044032" id="Fill-29" fill="#FFFFFF"></path>
                            <path d="M96.3493123,90.1512251 C71.3475463,104.22139 42.4990161,107.413658 15.7551252,116.811604 C14.4254158,117.279266 14.9978073,119.403535 16.3407257,118.932208 C43.2702769,109.469023 72.2831862,106.218848 97.4603388,92.0497262 C98.6968512,91.3540978 97.5872923,89.4541307 96.3493123,90.1512251" id="Fill-31" fill="#FFFFFF"></path>
                            <path d="M96.6229462,89.9649432 C81.3439385,92.2130933 66.0342692,89.2944048 50.7267899,89.0209332 C35.7062164,88.753144 20.4819617,91.0915044 5.79063622,93.9214033 C4.40575029,94.1877718 4.99343251,96.2420057 6.37247812,95.9763476 C21.3667702,93.0882027 36.7363029,90.9025603 52.0591129,91.176032 C67.1745917,91.4452417 82.1039102,94.2417559 97.2055182,92.0198874 C98.5984345,91.814606 98.0041819,89.7617928 96.6229462,89.9649432" id="Fill-33" fill="#FFFFFF"></path>
                            <path d="M94.9433009,88.7527553 C81.1544505,89.289104 69.0297717,80.7297494 57.0312549,75.0165988 C50.6793993,71.9925997 43.9826036,69.6590385 37.5023981,66.9276606 C30.165312,63.8347659 22.8326015,60.7374263 15.3328904,58.0682767 C13.9976151,57.5926747 13.4287922,59.7410327 14.7509408,60.211449 C22.2506519,62.8798578 29.584821,65.9757157 36.9211778,69.0708329 C43.9490576,72.0355669 51.1745669,74.6084108 58.0369047,77.9517003 C69.7087129,83.6389225 81.4855346,91.4982086 94.9433009,90.9751946 C96.3493145,90.9203744 96.3551485,88.6979351 94.9433009,88.7527553" id="Fill-35" fill="#FFFFFF"></path>
                            <g id="Group-39" stroke-width="1" fill="none" transform="translate(60.000000, 136.000000)">
                                <mask id="mask-4" fill="white">
                                    <use xlink:href="#path-3"></use>
                                </mask>
                                <g id="Clip-38"></g>
                                <path d="M43.5513888,2.66914884 C57.3324834,10.2079047 73.5102586,7.49377674 86.9914953,1.46335814 C96.279087,-2.45656047 96.279087,5.6850907 94.4813947,12.6202186 C92.3845722,21.0629512 89.0890456,27.3959163 98.0767793,31.9194628 C101.371578,33.7281488 104.367975,35.2357535 107.962631,35.8386488 C111.258158,36.1404628 115.452531,35.2357535 118.448199,37.0451721 C128.933767,42.171614 116.051519,53.6295558 110.359312,56.9473116 C97.4770633,64.4853349 77.1056432,62.9777302 63.0246905,62.6759163 C50.142442,62.6759163 35.7623592,62.3748349 23.1792408,59.9625209 C18.9855959,59.3596256 16.5889154,58.7559977 12.6944006,56.9473116 C9.69800414,55.7407884 2.80782071,53.0266605 1.30925858,49.4085558 C-2.58525621,40.0603814 13.2933888,37.9498814 18.0867497,37.346986 C26.1749095,36.7440907 37.2601935,36.7440907 39.956732,28.601707 C41.4545663,24.380707 38.1590396,22.2694744 35.7623592,18.3495558 C33.9646669,15.0325326 31.2688562,10.2079047 32.7666905,5.98617209 C33.9646669,2.06625349 39.357016,1.76517209 42.9524006,2.66914884" id="Fill-37" fill="#8B572A" mask="url(#mask-4)"></path>
                                <path d="M43.5513888,2.66914884 C57.3324834,10.2079047 73.5102586,7.49377674 86.9914953,1.46335814 C96.279087,-2.45656047 96.279087,5.6850907 94.4813947,12.6202186 C92.3845722,21.0629512 89.0890456,27.3959163 98.0767793,31.9194628 C101.371578,33.7281488 104.367975,35.2357535 107.962631,35.8386488 C111.258158,36.1404628 115.452531,35.2357535 118.448199,37.0451721 C128.933767,42.171614 116.051519,53.6295558 110.359312,56.9473116 C97.4770633,64.4853349 77.1056432,62.9777302 63.0246905,62.6759163 C50.142442,62.6759163 35.7623592,62.3748349 23.1792408,59.9625209 C18.9855959,59.3596256 16.5889154,58.7559977 12.6944006,56.9473116 C9.69800414,55.7407884 2.80782071,53.0266605 1.30925858,49.4085558 C-2.58525621,40.0603814 13.2933888,37.9498814 18.0867497,37.346986 C26.1749095,36.7440907 37.2601935,36.7440907 39.956732,28.601707 C41.4545663,24.380707 38.1590396,22.2694744 35.7623592,18.3495558 C33.9646669,15.0325326 31.2688562,10.2079047 32.7666905,5.98617209 C33.9646669,2.06625349 39.357016,1.76517209 42.9524006,2.66914884" id="Fill-37-Copy" fill="#29190A" mask="url(#mask-4)"></path>
                            </g>
                        </g>
                    </g>
                </g>
            </g>
        </g>
    </g>
</svg>