<?xml version="1.0" encoding="UTF-8"?>
<svg width="215px" height="215px" viewBox="0 0 215 215" version="1.1" xmlns="http://www.w3.org/2000/svg" xmlns:xlink="http://www.w3.org/1999/xlink">
    <!-- Generator: Sketch 54.1 (76490) - https://sketchapp.com -->
    <title>pat12</title>
    <desc>Created with Sketch.</desc>
    <defs>
        <circle id="path-1" cx="107.5" cy="107.5" r="107.5"></circle>
        <polygon id="path-3" points="0 0.262878542 87.4188607 0.262878542 87.4188607 45.8674254 0 45.8674254"></polygon>
        <polygon id="path-5" points="0.630102252 0.410729639 46.2985367 0.410729639 46.2985367 88.5334942 0.630102252 88.5334942"></polygon>
        <polygon id="path-7" points="0.16194177 0.426087243 128.456767 0.426087243 128.456767 144 0.16194177 144"></polygon>
    </defs>
    <g id="Page-1" stroke="none" stroke-width="1" fill="none" fill-rule="evenodd">
        <g id="Desktop-HD" transform="translate(-1014.000000, -1804.000000)">
            <g id="pat12" transform="translate(1014.000000, 1804.000000)">
                <g id="Group-7">
                    <mask id="mask-2" fill="white">
                        <use xlink:href="#path-1"></use>
                    </mask>
                    <use id="Mask" fill="#FFD6A5" xlink:href="#path-1"></use>
                    <g id="Group-24" mask="url(#mask-2)">
                        <g transform="translate(20.000000, 18.000000)">
                            <g id="Group-3" stroke-width="1" fill="none" transform="translate(0.000000, 56.000000)">
                                <mask id="mask-4" fill="white">
                                    <use xlink:href="#path-3"></use>
                                </mask>
                                <g id="Clip-2"></g>
                                <path d="M80.9708993,25.851605 C68.0731952,18.3620809 55.1754911,3.37941181 40.4360212,0.571519141 C27.5383171,-1.30221968 -5.62593542,5.25315063 0.822026024,23.0437123 C11.8779643,55.8133224 66.2314294,48.3237982 87.4188607,31.4710111 C85.5770949,29.5972723 82.8126651,26.7893796 80.0482352,25.851605" id="Fill-1" fill="#112C8E" mask="url(#mask-4)"></path>
                            </g>
                            <path d="M10.1365009,74.0785493 C12.5497299,79.3985803 18.3705028,85.0232348 24.583627,81.6614974 C28.7794566,79.3913274 31.4291713,77.2426441 35.0284119,81.8609532 C36.5799014,83.8518851 37.919987,85.0232348 40.3887544,85.3496171 C42.8736457,85.6796258 45.3227059,83.0667544 46.859863,81.4874269 C49.548992,78.724057 50.0685439,84.5517937 53.0514885,86.3196977 C54.9630812,87.4529695 57.1595317,86.6333873 58.9546731,85.6488008 C66.2946874,81.6252327 70.3615248,85.7303964 77.3486022,87.9316635 C79.0057936,88.4538751 79.709876,85.8283111 78.0616424,85.3079127 C73.1456064,83.7594101 68.4929295,79.0921436 63.1307955,80.1238743 C59.9507795,80.7367476 56.7492648,86.847349 52.7917125,81.9479885 C51.4301282,80.2634934 50.0237549,78.0386542 48.0799142,76.986978 C47.5567791,76.7059266 46.8724039,76.7440045 46.4513877,77.2009397 C42.9524743,80.9851608 40.2454297,84.4774511 36.3953709,79.1936848 C35.3401431,77.7430969 34.0394717,75.8011224 32.2371641,75.2426461 C29.7827292,74.4810875 28.100456,75.1139064 25.9523776,76.423062 C25.074514,76.9597795 24.4044712,77.9044748 23.7613018,78.6877923 C19.6711742,83.6560557 13.8504012,75.7775504 12.4565689,72.7059306 C11.7345709,71.1139104 9.41808598,72.4955953 10.1365009,74.0785493" id="Fill-4" fill="#FFFFFF"></path>
                            <g id="Group-8" stroke-width="1" fill="none" transform="translate(68.000000, 0.000000)">
                                <mask id="mask-6" fill="white">
                                    <use xlink:href="#path-5"></use>
                                </mask>
                                <g id="Clip-7"></g>
                                <path d="M19.7663923,82.1329573 C27.5213923,69.2508185 42.7530077,56.5254055 45.8748923,41.6778893 C48.0206231,28.6786566 42.1944308,-4.993968 24.2928538,1.15256501 C-8.65956923,11.6387809 -2.35072308,66.7558161 14.0197385,88.5334942 C15.9268538,86.7122325 18.7920462,83.9758363 19.7862769,81.2016098" id="Fill-6" fill="#112C8E" mask="url(#mask-6)"></path>
                            </g>
                            <path d="M85.2138581,18.6993819 C91.8336873,19.4859405 94.8784762,22.7898448 88.5228489,27.1472718 C86.9893691,28.197211 86.6826731,28.3692147 85.4078525,29.5499484 C84.5912283,30.3078397 84.0110926,31.6659522 84.1773735,32.7642675 C84.4323377,34.4413035 85.3468829,35.4876594 86.5625813,36.6755599 C90.2965124,40.3234716 89.8198403,43.8298386 85.1750592,46.8649872 C78.8268222,51.0127846 89.7551755,58.399985 85.4448039,61.5838451 C84.1311844,62.5549493 82.1579838,62.8201217 81.757062,64.7426213 C81.2563716,67.1470897 83.3958531,72.1513222 81.6000189,73.4252246 C80.1736979,74.4357463 81.5538297,76.7703381 82.9986264,75.7454827 C84.4766792,74.6973352 86.8434114,73.3822236 85.82725,71.1425922 C82.6974731,64.2409439 88.1847443,65.3213421 89.4632601,60.8116202 C90.7306904,56.3466909 82.6106375,50.9124491 89.2581802,47.6676711 C91.1907343,46.7234425 93.9842542,44.3153907 93.6960339,41.9001721 C93.4078136,39.4634531 92.2050481,38.0282973 90.3815004,36.3763451 C88.2346286,34.4287616 84.8166314,32.8986454 89.9196089,29.46753 C92.0276818,28.0520829 93.8216684,26.708304 95.5195816,24.830597 C101.217475,18.5255865 88.8868194,16.4490003 85.2138581,16.0118242 C83.4438898,15.800403 83.464213,18.4915441 85.2138581,18.6993819" id="Fill-9" fill="#FFFFFF"></path>
                            <path d="M70.4030883,86.0701531 C61.03941,80.835601 46.7095775,78.3453596 39.818281,70.2529763 C34.1747619,62.9570378 27.2014686,40.0295193 41.1926187,37.4978341 C66.6864941,32.3263488 80.2694427,68.7105403 76.326466,88 C74.4565824,87.5477203 71.6526483,86.8683997 70.0893614,85.5007491" id="Fill-11" fill="#1630B2"></path>
                            <path d="M45.8829218,50.6863048 C48.6222361,51.7332583 49.8518146,52.4533756 49.4765424,55.3679649 C49.2499956,57.1350356 49.512859,58.7063638 50.0921963,60.3674822 C50.3758122,61.1863687 51.2249304,61.6263405 51.9962272,61.1720022 C52.2435264,61.0283379 57.765389,58.8338659 57.16357,60.5955493 C56.8678485,61.4647182 56.8799541,61.9010985 56.8643898,62.8420996 C56.8401787,64.3703285 56.6689716,66.2505349 56.9785279,67.75901 C57.6028287,70.7939181 60.9595262,70.3126427 63.2768754,70.2084861 L61.9798516,68.8616334 C62.2271508,72.8519091 63.6417714,75.8149851 67.055538,77.8137145 C68.5133927,78.6703129 69.8207927,76.3429514 68.3646673,75.4899446 C65.8069364,73.9904486 64.7589412,71.8606255 64.5738991,68.8616334 C64.5289356,68.1558826 64.0153142,67.4824562 63.2768754,67.5147807 C60.6257588,67.6350995 59.4601667,68.1056001 59.508589,65.1191786 C59.5362588,63.3880239 60.2781564,61.0624582 59.8423564,59.4157063 C58.7684207,55.3625775 52.7467717,57.6378607 50.6870979,58.8464365 L52.5928582,59.6527523 C51.7022352,57.0973238 52.4683439,54.9100349 52.1259296,52.3599938 C51.7904328,49.8566435 48.4216297,48.7953236 46.5712091,48.0895727 C44.9992163,47.4879785 44.3264933,50.0918938 45.8829218,50.6863048" id="Fill-13" fill="#FFFFFF"></path>
                            <path d="M83.2401494,89.9150214 C99.7263516,90.080659 120.198957,97.3562436 135.979886,92.0896821 C149.474944,86.9264214 178.133369,62.8626702 162.415091,49.4531533 C134.263245,24.3083054 85.5707721,60.6612938 74,88.0538254 C76.783501,88.8392679 80.9560675,90.0183223 84.1351658,89.4181088" id="Fill-15" fill="#1630B2"></path>
                            <path d="M75.1908507,87.0637558 C77.0682921,90.6959513 90.5294248,102.042751 82.2869133,104.889316 C77.4171351,106.569991 74.9752341,109.188759 74.1425687,114.463963 C73.500978,118.532022 75.0979427,122.255695 77.4662186,125.410772 C82.0642849,131.541559 85.3984527,134.138803 79.2297164,141.320685 C76.9999259,143.916136 80.7057254,147.736667 82.9477867,145.125074 C86.3590856,141.153873 90.0841679,136.052657 87.7860113,130.535307 C85.3195686,124.617967 78.3304377,121.491588 79.4786395,114.214641 C80.4918619,107.800453 91.1044022,110.229092 90.9992235,101.877732 C90.8975506,93.9209822 83.1090609,90.8789063 79.7328216,84.3463354 C78.1463748,81.2791481 73.6079098,83.9983621 75.1908507,87.0637558" id="Fill-17" fill="#1630B2"></path>
                            <g id="Group-21" stroke-width="1" fill="none" transform="translate(20.000000, 133.000000)">
                                <mask id="mask-8" fill="white">
                                    <use xlink:href="#path-7"></use>
                                </mask>
                                <g id="Clip-20"></g>
                                <path d="M61,-1.54321e-13 C83.2399583,0.925919342 100.5,-5 128.456767,0.426087243 C138,32.5 130.768292,60.4321251 121.5,91 C115.940458,110.45147 82.1242667,126.399473 72.8577667,144.000895 C57.1036417,124.547635 44.91135,92.6562502 34.7185583,69.497521 C30.0853083,57.4569877 7.51283333,65.1616658 1.5,52 C-3.428875,41.2077564 -4.88085833,4.60615638 1.50464167,0.426087243 C23.5,-1 47.10025,-0.925919342 61,-1.54321e-13 Z" id="Fill-19" fill="#302925" mask="url(#mask-8)"></path>
                            </g>
                            <path d="M79.9419463,85.9560092 C86.8496743,88.0796649 91.1553721,87.2437384 94.9027251,80.8288714 C98.4496466,74.7578867 103.422853,70.9459156 110.237523,75.1292063 C112.97735,76.8102051 115.264417,78.6759492 118.593011,78.504008 C120.549008,78.4052334 122.592693,76.4425438 123.550111,74.8621489 C124.792071,72.8116596 125.677906,70.905674 126.429524,68.6484896 C128.587742,62.1787478 135.715587,68.346678 138.501942,69.0728549 C140.733532,69.6526989 143.637999,70.1575473 145.212818,67.8436588 C146.220344,66.3638677 146.687421,65.0230928 147.177762,63.2689276 C149.096178,56.4040871 156.139913,61.282459 159.012168,63.0969865 C160.48856,64.0298585 161.834315,61.6556078 160.36508,60.7282233 C155.590516,57.7119371 148.604047,54.1340985 145.207449,60.6934692 C143.652315,63.7006096 144.953331,69.0582216 137.431781,65.5956202 C135.225245,64.5804359 133.476838,63.5780558 131.111031,63.113449 C128.682589,62.636038 125.849705,63.8835257 124.611324,66.0437646 C123.76307,67.5235557 123.152827,69.9051231 122.539006,71.3190644 C119.273046,78.844232 115.182097,75.1218897 111.592225,72.7604431 C109.283684,71.2404105 106.010567,69.4770994 103.14547,70.2398595 C99.9314079,71.0959068 97.055574,72.7641014 95.060207,75.5590591 C90.7616674,81.5806565 89.4177027,86.0035674 80.6541939,83.3110427 C78.9934759,82.7988776 78.2883865,85.4475025 79.9419463,85.9560092" id="Fill-22" fill="#FFFFFF"></path>
                        </g>
                    </g>
                </g>
            </g>
        </g>
    </g>
</svg>