<?xml version="1.0" encoding="UTF-8"?>
<svg width="215px" height="215px" viewBox="0 0 215 215" version="1.1" xmlns="http://www.w3.org/2000/svg" xmlns:xlink="http://www.w3.org/1999/xlink">
    <!-- Generator: Sketch 54.1 (76490) - https://sketchapp.com -->
    <title>pat10</title>
    <desc>Created with Sketch.</desc>
    <defs>
        <circle id="path-1" cx="107.5" cy="107.5" r="107.5"></circle>
        <polygon id="path-3" points="0 0.058504153 158.908369 0.058504153 158.908369 93 0 93"></polygon>
    </defs>
    <g id="Page-1" stroke="none" stroke-width="1" fill="none" fill-rule="evenodd">
        <g id="Desktop-HD" transform="translate(-212.000000, -1804.000000)">
            <g id="pat10" transform="translate(212.000000, 1804.000000)">
                <g id="Group-7">
                    <mask id="mask-2" fill="white">
                        <use xlink:href="#path-1"></use>
                    </mask>
                    <use id="Mask" fill="#215428" xlink:href="#path-1"></use>
                    <g id="Group-30" mask="url(#mask-2)">
                        <g transform="translate(28.000000, 28.000000)">
                            <path d="M34.7079298,115 C27.9969979,84.7240999 30.6813707,-7.41994386 79.0000802,0.478117033 C116.581299,7.05983444 125.976603,84.7240999 120.607858,112.367313 C105.843808,112.367313 91.0797576,109.734626 76.3157075,109.734626 C61.5516573,109.734626 46.7876072,113.683657 34.7079298,115" id="Fill-1" fill="#6182FF"></path>
                            <path d="M48,54 C49.9995,55.000375 52.0005,55.9992501 54,58" id="Fill-6" fill="#FFFFFF"></path>
                            <path d="M47.9759202,56.4382728 C49.6970239,57.2752267 51.3170367,58.1494892 52.7067159,59.4627484 C54.4802845,61.1403872 57.1982207,58.50392 55.4208133,56.8250375 C53.7969615,55.289171 51.926141,54.1947884 49.9145611,53.2160621 C47.7071977,52.1428209 45.7621586,55.3613008 47.9759202,56.4382728" id="Fill-8" fill="#FFFFFF"></path>
                            <path d="M65,27 C67.5712449,28.7137347 69.2849796,30.4287551 71,33" id="Fill-10" fill="#FFFFFF"></path>
                            <path d="M62.9755664,28.0952898 C65.3468901,29.6995861 67.3002518,31.6543286 68.9045938,34.0241486 C70.4529202,36.3121021 74.1872882,34.1591565 72.6260351,31.8510955 C70.5893682,28.8407059 68.1591564,26.4105632 65.1501176,24.3739543 C62.8419909,22.8127456 60.6875478,26.5470074 62.9755664,28.0952898" id="Fill-12" fill="#FFFFFF"></path>
                            <path d="M82,45 C84.6251641,43.9995 87.2503281,40.9995 89,39" id="Fill-14" fill="#FFFFFF"></path>
                            <path d="M83.4241663,46.8737007 C86.5987716,45.7601583 89.0579917,43.5266885 91.4106367,41.2727867 C93.2344029,39.5258532 90.4088309,36.81734 88.5850648,38.5642735 C86.770624,40.3022681 84.8242965,42.3160942 82.3610798,43.179345 C79.9618082,44.0208868 80.9982509,47.7254585 83.4241663,46.8737007" id="Fill-16" fill="#FFFFFF"></path>
                            <path d="M87,65.249875 C89.6251641,65.916875 92.2503281,65.916875 94,65.249875" id="Fill-18" fill="#FFFFFF"></path>
                            <path d="M87.3859234,67.2422864 C90.2407429,68.2026824 93.2053123,68.3741817 95.9675717,67.0264831 C98.2947984,65.8903003 96.2769871,62.1959199 93.9643056,63.3235277 C92.2426868,64.1653033 90.1547942,63.6851053 88.4411091,63.1077244 C85.9909096,62.2845278 84.9515914,66.4233773 87.3859234,67.2422864" id="Fill-20" fill="#FFFFFF"></path>
                            <path d="M49,85 C52.60027,85 55.300135,85.667 58,87" id="Fill-22" fill="#FFFFFF"></path>
                            <path d="M48.9710902,86.1649686 C51.9531131,86.21078 54.4976821,87.0034572 57.0001359,88.6568346 C59.213218,90.1214132 61.2551225,86.5134133 59.0556259,85.0613288 C55.9730701,83.0220245 52.636465,82.055819 48.9710902,82.00029 C46.3409325,81.9600314 46.3450081,86.12471 48.9710902,86.1649686" id="Fill-24" fill="#FFFFFF"></path>
                            <path d="M90,84.5 L98,84.5" id="Fill-26" fill="#FFFFFF"></path>
                            <path d="M89.9384069,86 L97.0615931,86 C99.6461356,86 99.6461356,82 97.0615931,82 L89.9384069,82 C87.3538644,82 87.3538644,86 89.9384069,86" id="Fill-28" fill="#FFFFFF"></path>
                            <path d="M24.2265201,118 C18.7086427,102.203878 20.9157937,54.1287249 60.6445104,58.2494524 C91.5446234,61.6833919 99.2696517,102.203878 94.8553498,116.626424 C82.7160197,116.626424 70.5766896,115.252848 58.4373595,115.252848 C46.2980294,115.252848 34.1586993,117.313212 24.2265201,118" id="Fill-1-Copy-2" fill="#425DC3"></path>
                            <path d="M49.9755664,74.0952898 C52.3468901,75.6995861 54.3002518,77.6543286 55.9045938,80.0241486 C57.4529202,82.3121021 61.1872882,80.1591565 59.6260351,77.8510955 C57.5893682,74.8407059 55.1591564,72.4105632 52.1501176,70.3739543 C49.8419909,68.8127456 47.6875478,72.5470074 49.9755664,74.0952898" id="Fill-12" fill="#FFFFFF"></path>
                            <path d="M66.9384069,93 L74.0615931,93 C76.6461356,93 76.6461356,89 74.0615931,89 L66.9384069,89 C64.3538644,89 64.3538644,93 66.9384069,93" id="Fill-28" fill="#FFFFFF"></path>
                            <path d="M36.9384069,93 L44.0615931,93 C46.6461356,93 46.6461356,89 44.0615931,89 L36.9384069,89 C34.3538644,89 34.3538644,93 36.9384069,93" id="Fill-28" fill="#FFFFFF"></path>
                            <g id="Group-5" stroke-width="1" fill="none" transform="translate(0.000000, 94.000000)">
                                <mask id="mask-4" fill="white">
                                    <use xlink:href="#path-3"></use>
                                </mask>
                                <g id="Clip-4"></g>
                                <path d="M9.40951007,5.75736429 C30.7665471,24.3573643 85.4939545,4.42879286 110.855436,1.77165 C122.868769,0.443078571 144.225806,-3.54263571 153.56951,8.41450714 C158.908769,15.0573643 158.908769,46.9430786 158.908769,54.9145071 C158.908769,77.5002214 157.573955,78.8287929 137.551732,84.1430786 C118.864325,89.4573643 97.5072879,90.7859357 77.4850656,92.1145071 C57.4628434,93.4430786 32.1013619,94.77165 14.7487693,84.1430786 C-1.26900844,76.17165 0.0658063704,70.8573643 0.0658063704,50.9287929 C0.0658063704,37.6430786 -1.26900844,15.0573643 8.07469526,4.42879286" id="Fill-3" fill="#F53523" mask="url(#mask-4)"></path>
                            </g>
                        </g>
                    </g>
                </g>
            </g>
        </g>
    </g>
</svg>