<?xml version="1.0" encoding="UTF-8"?>
<svg width="215px" height="215px" viewBox="0 0 215 215" version="1.1" xmlns="http://www.w3.org/2000/svg" xmlns:xlink="http://www.w3.org/1999/xlink">
    <!-- Generator: Sketch 54.1 (76490) - https://sketchapp.com -->
    <title>pat15</title>
    <desc>Created with Sketch.</desc>
    <defs>
        <circle id="path-1" cx="107.5" cy="107.5" r="107.5"></circle>
        <polygon id="path-3" points="0 0.144073103 89.6544133 0.144073103 89.6544133 58.7661299 0 58.7661299"></polygon>
    </defs>
    <g id="Page-1" stroke="none" stroke-width="1" fill="none" fill-rule="evenodd">
        <g id="Desktop-HD" transform="translate(-1014.000000, -2164.000000)">
            <g id="pat15" transform="translate(1014.000000, 2164.000000)">
                <g id="Group-7">
                    <mask id="mask-2" fill="white">
                        <use xlink:href="#path-1"></use>
                    </mask>
                    <use id="Mask" fill="#FEE039" xlink:href="#path-1"></use>
                    <g id="Group-20" mask="url(#mask-2)">
                        <g transform="translate(32.000000, 36.000000)">
                            <path d="M90.9118155,111 C89.2569481,98.9671184 89.8411073,86.8777013 88.1877415,74.8448197 C87.3452908,68.2576765 85.5943149,61.2426976 86.0853691,54.1665992 C86.6109622,39.7959006 97.7820683,21.4982806 111.546601,16.7997268 C118.20061,14.344255 125.000283,17.5789992 124.994276,26.0104202 C125.29011,37.3954362 114.040916,35.4166957 109.25952,41.0121766 C101.844152,48.7315567 113.57539,52.0640919 114.658112,59.3266044 C114.746712,62.7416508 111.809398,70.34032 108.721913,72.2441893 C105.635931,74.1495866 102.79923,68.3019881 99.8003458,73.6209038 C98.3151699,76.851064 105.448219,84.1808079 106.2291,88.4897255 C107.253256,93.4740124 107.673731,100.982531 105.553338,105.597045 C100.434061,115.532003 87.9775043,110.167248 87.713206,99.920581" id="Fill-1" fill="#006B20"></path>
                            <path d="M98.9841859,119.555203 C97.0749015,107.40068 98.1806954,95.0269762 96.6978178,82.8080781 C95.2563081,70.937109 96.8855641,57.2284004 98.5864183,45.4447968 C98.7948485,43.9963699 96.4973429,43.3710174 96.2857306,44.8347715 C94.5053228,57.1624932 93.4361236,70.3791964 94.3112123,82.8080781 C95.1799367,95.1541925 94.7598941,107.924872 96.6834982,120.165229 C96.9126123,121.628983 99.211709,121.00363 98.9841859,119.555203" id="Fill-3" fill="#FFFFFF"></path>
                            <path d="M90.7306793,119.095301 C100.455229,108.860638 91.386834,81.1441048 85.0822422,70.1804597 C76.0245534,51.9893921 61.9088139,33.3782849 49.7324782,15.9435932 C45.6410703,11.3444628 34.7586902,-2.13028928 26.1002005,0.287982813 C12.6039077,4.52794885 25.0463761,17.6313615 29.6761674,23.0827464 C36.2453625,29.7135906 41.1994074,33.7770183 39.6515551,43.6814328 C37.941576,54.2783042 32.7810489,57.4986086 43.0638657,67.1762626 C48.3972262,72.7935328 59.0517111,74.4904323 62.5022592,81.8730868 C67.0295741,90.9693815 58.5898027,95.6339529 56.8217027,103.289024 C53.7259982,123.099375 89.4566072,134.192381 92.2907675,118.717874" id="Fill-5" fill="#00AD33"></path>
                            <g id="Group-9" stroke-width="1" fill="none" transform="translate(0.000000, 78.000000)">
                                <mask id="mask-4" fill="white">
                                    <use xlink:href="#path-3"></use>
                                </mask>
                                <g id="Clip-8"></g>
                                <path d="M89.6544133,50.87684 C81.8405467,41.639915 72.4827133,34.06219 64.6688467,24.825265 C60.3508967,19.817165 56.3211133,13.83459 50.74433,9.51274 C39.7363633,0.379515 18.6653133,-3.283535 5.94199667,4.042565 C-0.344586667,7.46314 -2.51190333,14.76789 3.74434667,20.357015 C11.9904633,28.134515 18.07533,18.286065 25.4341967,18.371465 C36.1357967,17.865165 30.7319133,28.976315 35.3911133,34.615765 C37.8647967,36.94749 45.4723967,39.75959 48.95618,38.67989 C52.4399633,37.60324 50.0087467,31.57034 55.96773,32.825415 C59.3589967,33.841065 60.0066133,44.11499 62.6759467,47.56454 C65.68653,51.650015 70.97363,56.94939 75.8178633,58.40119 C86.62108,61.108065 91.0057633,48.09829 83.5831967,41.100065" id="Fill-7" fill="#006B20" mask="url(#mask-4)"></path>
                            </g>
                            <path d="M91.452849,136.878172 C78.8180083,129.459364 69.4709433,119.242632 60.3593665,107.957217 C52.8116719,98.60964 42.652475,89.8682046 30.4237002,88.0150142 C28.9956764,87.7988591 28.3812941,89.9845958 29.8213942,90.2022626 C44.5695894,92.4363697 54.2155431,104.104213 63.1444657,114.942203 C70.971425,124.44396 79.6724073,132.589835 90.3101281,138.835661 C91.5721026,139.576332 92.7118045,137.61582 91.452849,136.878172" id="Fill-10" fill="#FFFFFF"></path>
                            <path d="M38.106038,18.7516723 C45.7473206,36.3770673 58.7674255,50.6917072 67.8988792,67.4631557 C72.913471,76.6723828 76.865598,87.0780482 80.8237704,96.7987299 C85.1083899,107.321604 86.4020881,117.73488 82.5754014,128.610901 C82.087242,130.002179 84.2771586,130.595832 84.7622954,129.216731 C91.8066029,109.195415 80.6257862,91.4786888 73.2232936,73.3692385 C64.977479,53.1941814 48.7352193,37.6039495 40.0632098,17.597855 C39.4798366,16.2522424 37.5271987,17.4151927 38.106038,18.7516723" id="Fill-12" fill="#FFFFFF"></path>
                            <path d="M82.2806791,135.280255 C77.3052681,126.622838 88.0132836,108.948926 94.1071041,102.40185 C103.255392,91.311531 115.928181,80.7522208 127.085071,70.6919673 C130.62922,68.1814685 140.256611,60.6454074 145.776113,63.7295172 C154.30323,68.8631069 143.672294,75.8864176 139.620326,78.8990162 C134.05246,82.4076285 130.00805,84.4068985 129.451868,91.5047634 C128.892663,99.1077711 131.894232,102.172101 123.293059,107.180927 C118.736295,110.192004 111.184008,109.627522 107.624746,114.1662 C103.049846,119.71212 108.053973,124.313179 108.013166,129.892573 C106.902314,144.08526 80.6922353,145.918684 81.2756219,134.765984" id="Fill-14" fill="#00AD33"></path>
                            <path d="M88.0796907,131.421653 C97.2835318,113.078536 116.498015,102.67368 124.889045,83.7524312 C125.481,82.417693 123.53987,81.2522758 122.943408,82.5961665 C114.561392,101.497585 95.3408993,111.914645 86.1340534,130.265388 C85.4759923,131.57877 87.4201272,132.735035 88.0796907,131.421653" id="Fill-16" fill="#FFFFFF"></path>
                            <path d="M30.4086929,120.082096 C68.9164965,130.30152 113.50608,118.038825 151,119.061227 C149.987637,132.344791 141.879611,145.629889 137.827118,158.914986 C136.813234,165.046334 135.799351,179.3523 129.719092,184.461246 C121.612586,191.614995 91.2112881,191.614995 80.0646523,193.658267 C66.89025,195.703071 53.7158477,198.768745 40.5429654,195.703071 C21.2883036,191.614995 19.2620571,179.3523 18.2481739,159.935855 C18.2481739,148.695562 15.2080441,122.126901 30.4086929,120.082096" id="Fill-18" fill="#0D6799"></path>
                        </g>
                    </g>
                </g>
            </g>
        </g>
    </g>
</svg>