<?xml version="1.0" encoding="UTF-8"?>
<svg width="229px" height="215px" viewBox="0 0 229 215" version="1.1" xmlns="http://www.w3.org/2000/svg" xmlns:xlink="http://www.w3.org/1999/xlink">
    <!-- Generator: Sketch 54.1 (76490) - https://sketchapp.com -->
    <title>pat3</title>
    <desc>Created with Sketch.</desc>
    <defs>
        <circle id="path-1" cx="107.5" cy="107.5" r="107.5"></circle>
    </defs>
    <g id="Page-1" stroke="none" stroke-width="1" fill="none" fill-rule="evenodd">
        <g id="Desktop-HD" transform="translate(-1006.000000, -722.000000)">
            <g id="pat3" transform="translate(1008.000000, 722.000000)">
                <g id="Group-7" transform="translate(12.000000, 0.000000)">
                    <mask id="mask-2" fill="white">
                        <use xlink:href="#path-1"></use>
                    </mask>
                    <use id="Mask" fill="#2E30DB" xlink:href="#path-1"></use>
                    <rect id="Rectangle" fill="#F5A623" mask="url(#mask-2)" x="92.3097826" y="-11.6847826" width="87.6358696" height="238.369565"></rect>
                    <polygon id="Path-2" fill="#E36C66" mask="url(#mask-2)" points="-30.3804348 184.035326 60.7608696 115.679348 140.217391 146.059783 132.038043 252.391304 8.17934783 259.986413"></polygon>
                </g>
                <g id="Group" transform="translate(0.000000, 43.000000)" stroke="#FFFFFF" stroke-width="3">
                    <path d="M30.3333333,0 C33.8333333,12.2312925 38.6944444,14.4013605 44.9166667,6.51020408 C51.1388889,-1.38095238 56.3888889,0.986394558 60.6666667,13.6122449" id="Path-3-Copy"></path>
                    <path d="M75.8333333,0 C79.3333333,12.2312925 84.1944444,14.4013605 90.4166667,6.51020408 C96.6388889,-1.38095238 101.888889,0.986394558 106.166667,13.6122449" id="Path-3-Copy-2"></path>
                    <path d="M0,21.3061224 C3.5,33.537415 8.36111111,35.707483 14.5833333,27.8163265 C20.8055556,19.9251701 26.0555556,22.292517 30.3333333,34.9183673" id="Path-3-Copy-4"></path>
                    <path d="M45.5,21.3061224 C49,33.537415 53.8611111,35.707483 60.0833333,27.8163265 C66.3055556,19.9251701 71.5555556,22.292517 75.8333333,34.9183673" id="Path-3-Copy-3"></path>
                    <path d="M91,21.3061224 C94.5,33.537415 99.3611111,35.707483 105.583333,27.8163265 C111.805556,19.9251701 117.055556,22.292517 121.333333,34.9183673" id="Path-3-Copy-6"></path>
                    <path d="M136.5,21.3061224 C140,33.537415 144.861111,35.707483 151.083333,27.8163265 C157.305556,19.9251701 162.555556,22.292517 166.833333,34.9183673" id="Path-3-Copy-5"></path>
                    <path d="M36.1666667,43.7959184 C39.6666667,56.0272109 44.5277778,58.1972789 50.75,50.3061224 C56.9722222,42.414966 62.2222222,44.7823129 66.5,57.4081633" id="Path-3-Copy-10"></path>
                    <path d="M81.6666667,43.7959184 C85.1666667,56.0272109 90.0277778,58.1972789 96.25,50.3061224 C102.472222,42.414966 107.722222,44.7823129 112,57.4081633" id="Path-3-Copy-9"></path>
                    <path d="M127.166667,43.7959184 C130.666667,56.0272109 135.527778,58.1972789 141.75,50.3061224 C147.972222,42.414966 153.222222,44.7823129 157.5,57.4081633" id="Path-3-Copy-8"></path>
                    <path d="M172.666667,43.7959184 C176.166667,56.0272109 181.027778,58.1972789 187.25,50.3061224 C193.472222,42.414966 198.722222,44.7823129 203,57.4081633" id="Path-3-Copy-7"></path>
                </g>
            </g>
        </g>
    </g>
</svg>